<?xml version="1.0" encoding="utf-8"?>
<!-- Generator: Adobe Illustrator 21.0.0, SVG Export Plug-In . SVG Version: 6.00 Build 0)  -->
<svg version="1.1" id="Logo" xmlns="http://www.w3.org/2000/svg" xmlns:xlink="http://www.w3.org/1999/xlink" x="0px" y="0px"
	 viewBox="0 0 245 110.5" style="enable-background:new 0 0 245 110.5;" xml:space="preserve">
<style type="text/css">
	.st0{fill:#141414;}
	.st1{fill:#FFFFFF;}
	.st2{opacity:0.6;}
</style>
<path id="imágenes_para_la_reunión" class="st0" d="M26.7,106.6v-6.4h-3.4v0.9h2.2v5.5h-2.3v0.9h5.5v-0.9H26.7L26.7,106.6z
	 M25.8,96.7c-0.5,0-0.8,0.4-0.8,0.8c0,0.2,0.1,0.4,0.2,0.6c0.2,0.2,0.4,0.2,0.6,0.2s0.5-0.1,0.6-0.2c0.3-0.3,0.3-0.9,0-1.2
	C26.3,96.8,26,96.7,25.8,96.7L25.8,96.7z M36.3,100c-0.3,0-0.6,0.1-0.9,0.3c-0.3,0.2-0.5,0.4-0.7,0.7c-0.1-0.6-0.7-1-1.3-1
	c-0.3,0-0.6,0.1-0.9,0.3c-0.3,0.2-0.5,0.5-0.7,0.8l-0.1-0.9h-0.9v7.4h1.1v-5.7c0.2-0.5,0.7-0.8,1.3-0.9c0.2,0,0.4,0.1,0.5,0.3
	c0.1,0.3,0.1,0.7,0.1,1.1v5.3h1.1V102c0.2-0.5,0.7-0.8,1.3-0.9c0.2,0,0.4,0.1,0.5,0.3c0.1,0.3,0.1,0.7,0.1,1.1v5.3h1.1V102
	C37.7,100.7,37.2,100,36.3,100L36.3,100L36.3,100z M45.1,105.9v-3.6c0-0.7-0.2-1.3-0.7-1.8c-0.6-0.5-1.3-0.7-2.1-0.6
	c-0.8,0-1.6,0.2-2.4,0.5l0.3,0.9c0.6-0.2,1.3-0.4,1.9-0.4c0.5,0,0.9,0.1,1.3,0.3c0.3,0.3,0.5,0.7,0.4,1.1v0.6h-1.1
	c-0.9-0.1-1.8,0.2-2.6,0.6c-0.6,0.4-0.9,1.1-0.9,1.8c0,0.6,0.2,1.2,0.6,1.7c0.5,0.4,1.1,0.7,1.7,0.6c0.5,0,0.9-0.1,1.3-0.3
	c0.4-0.2,0.7-0.4,1-0.8c0.2,0.6,0.7,1,1.3,1.1l0.3-0.8c-0.2,0-0.3-0.2-0.5-0.3C45.1,106.4,45.1,106.2,45.1,105.9L45.1,105.9
	L45.1,105.9z M42,106.8c-0.7,0.1-1.3-0.4-1.4-1c0-0.1,0-0.2,0-0.4c0-0.4,0.2-0.9,0.5-1.2c0.5-0.3,1.1-0.4,1.7-0.4h1.1v1.9
	c-0.2,0.3-0.5,0.6-0.8,0.8C42.8,106.7,42.4,106.8,42,106.8L42,106.8L42,106.8z M43.5,96.5l-2.6,1.6l0.4,0.6l2.8-1.3L43.5,96.5z
	 M54.6,100.5l-0.4-1.1c-0.5,0.2-0.9,0.4-1.4,0.5c-0.6,0.1-1.3,0.2-1.9,0.1c-0.5,0-1.1,0.1-1.5,0.3c-0.4,0.2-0.8,0.5-1,0.9
	s-0.4,0.9-0.4,1.3s0.1,0.8,0.3,1.2c0.2,0.4,0.5,0.6,0.9,0.8c-0.2,0.2-0.4,0.4-0.6,0.6c-0.1,0.2-0.2,0.4-0.2,0.7c0,0.4,0.2,0.8,0.5,1
	c0.4,0.3,0.9,0.4,1.4,0.4h1.3c0.4,0,0.8,0.1,1.2,0.3c0.3,0.2,0.5,0.5,0.5,0.8c0,0.4-0.2,0.8-0.6,0.9c-0.6,0.2-1.2,0.3-1.8,0.3
	c-0.4,0-0.8,0-1.3-0.1c-0.2-0.1-0.5-0.2-0.6-0.4c-0.1-0.2-0.2-0.5-0.2-0.7h-1c0,0.4,0.1,0.9,0.3,1.3c0.2,0.3,0.6,0.6,1,0.7
	c0.6,0.2,1.2,0.3,1.8,0.2c0.9,0.1,1.8-0.1,2.6-0.6c0.6-0.3,0.9-1,0.9-1.7c0-0.4-0.1-0.7-0.3-1s-0.6-0.6-0.9-0.7
	c-0.4-0.2-0.9-0.3-1.3-0.3h-1.3c-0.7,0-1-0.2-1-0.6c0-0.1,0-0.3,0.1-0.4s0.2-0.2,0.3-0.3c0.4,0.1,0.7,0.2,1.1,0.2
	c0.7,0,1.5-0.2,2-0.7s0.8-1.1,0.7-1.8c0-0.8-0.5-1.6-1.3-1.8c0.5,0,0.9,0,1.2,0C54,100.6,54.3,100.6,54.6,100.5L54.6,100.5
	L54.6,100.5z M50.8,100.9c0.4,0,0.9,0.1,1.2,0.4c0.3,0.4,0.4,0.8,0.4,1.3s-0.1,0.9-0.4,1.3c-0.3,0.3-0.8,0.5-1.2,0.5
	c-1,0-1.8-0.8-1.8-1.8c0-0.4,0.2-0.8,0.4-1.2C49.9,101,50.4,100.8,50.8,100.9L50.8,100.9L50.8,100.9z M57.5,104.3h5
	c0-0.2,0-0.4,0-0.6c0.1-1-0.2-1.9-0.8-2.7c-0.6-0.7-1.4-1-2.2-1c-0.6,0-1.2,0.2-1.7,0.5s-0.9,0.8-1.1,1.4c-0.3,0.6-0.4,1.3-0.4,2
	c-0.1,1,0.3,2,0.9,2.8c0.6,0.7,1.5,1.1,2.5,1c0.5,0,0.9-0.1,1.3-0.2c0.4-0.1,0.8-0.4,1.2-0.6l-0.5-0.8c-0.6,0.5-1.3,0.7-2,0.7
	c-0.6,0-1.1-0.2-1.5-0.6C57.7,105.6,57.5,104.9,57.5,104.3L57.5,104.3L57.5,104.3z M59.5,101c0.5,0,1,0.2,1.4,0.6
	c0.4,0.5,0.6,1.1,0.5,1.8h-3.9c0-0.6,0.2-1.3,0.6-1.8C58.5,101.2,59,101,59.5,101L59.5,101L59.5,101z M65,100.2v7.4h1.2v-5.4
	c0.2-0.3,0.5-0.6,0.9-0.9c0.3-0.2,0.7-0.4,1.1-0.4c0.3,0,0.6,0.1,0.8,0.2c0.2,0.2,0.3,0.4,0.4,0.7c0.1,0.4,0.1,0.8,0.1,1.3v4.5h1.2
	v-5.3c0.2-1-0.5-2-1.5-2.2c-0.2,0-0.4,0-0.5,0c-0.5,0-0.9,0.1-1.3,0.3c-0.4,0.2-0.8,0.5-1.1,0.9l-0.1-1L65,100.2L65,100.2z
	 M74.3,104.3h5c0-0.2,0-0.4,0-0.6c0.1-1-0.2-1.9-0.8-2.7c-0.6-0.7-1.4-1-2.2-1c-0.6,0-1.2,0.2-1.7,0.5s-0.9,0.8-1.1,1.4
	c-0.3,0.6-0.4,1.3-0.4,2c-0.1,1,0.3,2,0.9,2.8c0.6,0.7,1.5,1.1,2.5,1c0.5,0,0.9-0.1,1.3-0.2s0.8-0.4,1.2-0.6l-0.5-0.8
	c-0.6,0.5-1.3,0.7-2,0.7c-0.6,0-1.1-0.2-1.5-0.6C74.5,105.6,74.3,104.9,74.3,104.3L74.3,104.3L74.3,104.3z M76.3,101
	c0.5,0,1,0.2,1.4,0.6c0.4,0.5,0.6,1.1,0.5,1.8h-3.9c0-0.6,0.2-1.3,0.6-1.8C75.3,101.2,75.8,101,76.3,101L76.3,101L76.3,101z
	 M84.3,106.7c-0.4,0-0.8-0.1-1.2-0.2c-0.4-0.1-0.7-0.3-1-0.6l-0.7,0.8c1.5,1.1,3.4,1.3,5.1,0.5c0.9-0.6,1.2-1.9,0.6-2.8
	c-0.1-0.1-0.2-0.2-0.3-0.3c-0.5-0.4-1.1-0.7-1.8-0.8c-0.5-0.1-0.9-0.3-1.2-0.4c-0.2-0.1-0.4-0.2-0.6-0.4c-0.1-0.2-0.2-0.3-0.2-0.5
	c0-0.3,0.1-0.6,0.4-0.7c0.4-0.2,0.8-0.3,1.2-0.3c0.4,0,0.8,0,1.2,0.2c0.3,0.1,0.7,0.3,1,0.5l0.5-0.8c-0.8-0.6-1.7-0.9-2.7-0.8
	c-0.7,0-1.4,0.2-2,0.5c-0.5,0.3-0.8,0.9-0.8,1.5c0,0.5,0.2,1,0.6,1.3c0.6,0.4,1.2,0.6,1.9,0.8c0.4,0.1,0.8,0.2,1.1,0.4
	c0.2,0.1,0.4,0.2,0.5,0.4c0.1,0.2,0.1,0.4,0.1,0.6c0,0.4-0.2,0.7-0.5,0.9C85.3,106.6,84.8,106.8,84.3,106.7L84.3,106.7L84.3,106.7z
	 M101.9,100c-0.4,0-0.9,0.1-1.2,0.3c-0.4,0.2-0.7,0.5-1,0.9l-0.1-1h-1v10.3l1.2-0.1v-3.5c0.5,0.6,1.2,0.9,1.9,0.8
	c0.8,0,1.6-0.4,2.1-1.1c0.5-0.8,0.8-1.8,0.7-2.8c0.1-1-0.2-2-0.6-2.8C103.5,100.3,102.7,99.9,101.9,100L101.9,100L101.9,100z
	 M101.6,100.9c0.5,0,1,0.3,1.3,0.7c0.3,0.7,0.5,1.4,0.4,2.2c0.1,0.8-0.1,1.5-0.5,2.2c-0.3,0.5-0.8,0.7-1.4,0.7
	c-0.7,0-1.3-0.3-1.7-0.9v-3.7c0.2-0.3,0.5-0.6,0.8-0.9C100.9,101.1,101.3,100.9,101.6,100.9L101.6,100.9L101.6,100.9z M112.3,105.9
	v-3.6c0-0.7-0.2-1.3-0.7-1.8c-0.6-0.5-1.3-0.7-2.1-0.6c-0.8,0-1.6,0.2-2.4,0.5l0.3,0.9c0.6-0.2,1.3-0.4,1.9-0.4
	c0.5,0,0.9,0.1,1.3,0.3c0.3,0.3,0.5,0.7,0.4,1.1v0.6h-1c-0.9-0.1-1.8,0.2-2.6,0.6c-0.6,0.4-0.9,1.1-0.9,1.8c0,0.6,0.2,1.2,0.6,1.7
	c0.5,0.4,1.1,0.7,1.7,0.6c0.5,0,0.9-0.1,1.3-0.3c0.4-0.2,0.7-0.4,1-0.8c0.2,0.6,0.7,1,1.3,1.1l0.3-0.8c-0.2,0-0.3-0.2-0.5-0.3
	C112.3,106.4,112.3,106.2,112.3,105.9L112.3,105.9L112.3,105.9z M109.2,106.8c-0.7,0.1-1.3-0.4-1.4-1c0-0.1,0-0.2,0-0.4
	c0-0.4,0.2-0.9,0.5-1.2c0.5-0.3,1.1-0.4,1.7-0.4h1.1v1.9c-0.2,0.3-0.5,0.6-0.8,0.8C110,106.7,109.6,106.8,109.2,106.8L109.2,106.8
	L109.2,106.8z M115.3,107.5h5v-0.9h-2.1v-3.5c0.1-0.5,0.4-1,0.7-1.4c0.3-0.4,0.8-0.6,1.3-0.6c0.3,0,0.6,0,0.9,0.1l0.2-1.1
	c-0.3-0.1-0.6-0.1-1-0.1s-0.9,0.1-1.2,0.4c-0.4,0.3-0.7,0.7-0.9,1.2l-0.1-1.4h-2.7v0.9h1.7v5.5h-1.7L115.3,107.5L115.3,107.5z
	 M129.1,105.9v-3.6c0-0.7-0.2-1.3-0.7-1.8c-0.6-0.5-1.3-0.7-2.1-0.6c-0.8,0-1.6,0.2-2.4,0.5l0.3,0.9c0.6-0.2,1.3-0.4,1.9-0.4
	c0.5,0,0.9,0.1,1.3,0.3c0.3,0.3,0.5,0.7,0.4,1.1v0.6h-1.1c-0.9-0.1-1.8,0.2-2.6,0.6c-0.6,0.4-0.9,1.1-0.9,1.8c0,0.6,0.2,1.2,0.6,1.7
	c0.5,0.4,1.1,0.7,1.7,0.6c0.5,0,0.9-0.1,1.3-0.3c0.4-0.2,0.7-0.4,1-0.8c0.2,0.6,0.7,1,1.3,1.1l0.3-0.8c-0.2,0-0.3-0.2-0.5-0.3
	C129.1,106.4,129.1,106.2,129.1,105.9L129.1,105.9L129.1,105.9z M126,106.8c-0.7,0.1-1.3-0.4-1.4-1c0-0.1,0-0.2,0-0.4
	c0-0.4,0.2-0.9,0.5-1.2c0.5-0.3,1.1-0.4,1.7-0.4h1.1v1.9c-0.2,0.3-0.5,0.6-0.8,0.8C126.8,106.7,126.4,106.8,126,106.8L126,106.8
	L126,106.8z M143.5,105.7v-8.5h-3.4v0.9h2.3v7.5c0,0.6,0.2,1.1,0.6,1.5c0.4,0.4,1,0.6,1.6,0.5c0.6,0,1.2-0.1,1.8-0.4l-0.3-0.8
	c-0.4,0.2-0.8,0.2-1.2,0.3c-0.5,0.1-1.1-0.2-1.2-0.7C143.5,105.9,143.5,105.8,143.5,105.7L143.5,105.7L143.5,105.7z M154.3,105.9
	v-3.6c0-0.7-0.2-1.3-0.7-1.8c-0.6-0.5-1.3-0.7-2.1-0.6c-0.8,0-1.6,0.2-2.4,0.5l0.3,0.9c0.6-0.2,1.3-0.4,1.9-0.4
	c0.5,0,0.9,0.1,1.3,0.3c0.3,0.3,0.5,0.7,0.4,1.1v0.6h-1c-0.9-0.1-1.8,0.2-2.6,0.6c-0.6,0.4-0.9,1.1-0.9,1.8c0,0.6,0.2,1.2,0.6,1.7
	c0.5,0.4,1.1,0.7,1.7,0.6c0.5,0,0.9-0.1,1.3-0.3c0.4-0.2,0.7-0.4,1-0.8c0.2,0.6,0.7,1,1.3,1.1l0.3-0.8c-0.2,0-0.3-0.2-0.5-0.3
	C154.3,106.4,154.3,106.2,154.3,105.9L154.3,105.9L154.3,105.9z M151.3,106.8c-0.7,0.1-1.3-0.4-1.4-1c0-0.1,0-0.2,0-0.4
	c0-0.4,0.2-0.9,0.5-1.2c0.5-0.3,1.1-0.4,1.7-0.4h1.1v1.9c-0.2,0.3-0.5,0.6-0.8,0.8C152,106.7,151.6,106.8,151.3,106.8L151.3,106.8
	L151.3,106.8z M165.7,107.5h5v-0.9h-2.1v-3.5c0.1-0.5,0.4-1,0.7-1.4s0.8-0.6,1.3-0.6c0.3,0,0.6,0,0.9,0.1l0.2-1.1
	c-0.3-0.1-0.6-0.1-1-0.1s-0.9,0.1-1.2,0.4c-0.4,0.3-0.7,0.7-0.9,1.2l-0.1-1.4h-2.7v0.9h1.7v5.5h-1.7L165.7,107.5L165.7,107.5z
	 M175.1,104.3h5c0-0.2,0-0.4,0-0.6c0.1-1-0.2-1.9-0.8-2.7c-0.6-0.7-1.4-1-2.2-1c-0.6,0-1.2,0.2-1.7,0.5s-0.9,0.8-1.1,1.4
	c-0.3,0.6-0.4,1.3-0.4,2c-0.1,1,0.3,2,0.9,2.8c0.6,0.7,1.5,1.1,2.5,1c0.5,0,0.9-0.1,1.3-0.2c0.4-0.1,0.8-0.4,1.2-0.6l-0.5-0.8
	c-0.6,0.5-1.3,0.7-2,0.7c-0.6,0-1.1-0.2-1.5-0.6C175.3,105.6,175.1,104.9,175.1,104.3L175.1,104.3L175.1,104.3z M177.1,101
	c0.5,0,1,0.2,1.4,0.6c0.4,0.5,0.6,1.1,0.5,1.8h-3.9c0-0.6,0.2-1.3,0.6-1.8C176.1,101.2,176.6,101,177.1,101L177.1,101L177.1,101z
	 M183.8,105.4v-5.2h-1.2v5.4c0,0.6,0.2,1.2,0.5,1.6c0.4,0.4,1,0.6,1.6,0.6c0.4,0,0.9-0.1,1.3-0.3c0.4-0.2,0.8-0.5,1.1-0.8l0.1,1h1
	v-7.4H187v5.4c-0.2,0.3-0.5,0.6-0.9,0.8c-0.3,0.2-0.7,0.3-1.1,0.3c-0.3,0-0.7-0.1-0.9-0.3C183.9,106.1,183.8,105.8,183.8,105.4
	L183.8,105.4L183.8,105.4z M191,100.2v7.4h1.2v-5.4c0.2-0.3,0.5-0.6,0.9-0.9c0.3-0.2,0.7-0.4,1.1-0.4c0.3,0,0.6,0.1,0.8,0.2
	c0.2,0.2,0.3,0.4,0.4,0.7c0.1,0.4,0.1,0.8,0.1,1.3v4.5h1.2v-5.3c0.2-1-0.5-2-1.5-2.2c-0.2,0-0.4,0-0.5,0c-0.5,0-0.9,0.1-1.3,0.3
	c-0.4,0.2-0.8,0.5-1.1,0.9l-0.1-1L191,100.2L191,100.2z M203.1,106.6v-6.4h-3.4v0.9h2.2v5.5h-2.3v0.9h5.5v-0.9H203.1L203.1,106.6z
	 M202.2,96.7c-0.5,0-0.8,0.4-0.8,0.8c0,0.2,0.1,0.4,0.2,0.6c0.2,0.2,0.4,0.2,0.6,0.2c0.2,0,0.5-0.1,0.6-0.2c0.3-0.3,0.3-0.9,0-1.2
	C202.7,96.8,202.4,96.7,202.2,96.7L202.2,96.7z M210.6,100c-0.9,0-1.8,0.3-2.3,1.1c-1.1,1.7-1.1,3.9,0,5.6c0.6,0.7,1.4,1.1,2.3,1
	c0.9,0,1.8-0.3,2.3-1.1c1.1-1.7,1.1-3.9,0-5.6C212.4,100.3,211.5,99.9,210.6,100L210.6,100L210.6,100z M210.6,101
	c1.3,0,1.9,1,1.9,2.9c0.1,0.8-0.1,1.5-0.5,2.2c-0.6,0.8-1.7,0.9-2.5,0.3c-0.1-0.1-0.2-0.2-0.3-0.3c-0.4-0.7-0.5-1.4-0.5-2.2
	C208.7,101.9,209.3,101,210.6,101L210.6,101L210.6,101z M211.6,96.5l-2.6,1.6l0.4,0.6l2.8-1.3L211.6,96.5z M216.2,100.2v7.4h1.2
	v-5.4c0.2-0.3,0.5-0.6,0.9-0.9c0.3-0.2,0.7-0.4,1.1-0.4c0.3,0,0.6,0.1,0.8,0.2c0.2,0.2,0.3,0.4,0.4,0.7c0.1,0.4,0.1,0.8,0.1,1.3v4.5
	h1.2v-5.3c0.2-1-0.5-2-1.5-2.2c-0.2,0-0.4,0-0.5,0c-0.5,0-0.9,0.1-1.3,0.3c-0.4,0.2-0.8,0.5-1.1,0.9l-0.1-1L216.2,100.2L216.2,100.2
	z"/>
<g>
	<polygon class="st1" points="32.4,65.7 33.9,60.6 24.8,30.6 21.7,30.6 	"/>
	<path class="st1" d="M131.5,39c0.3-0.8,0.7-1.6,1.1-2.3c-1.1-1.4-2.4-2.7-3.9-3.7c-0.5-0.3-1-0.6-1.4-0.9
		C129.2,34.1,130.6,36.3,131.5,39z"/>
	<path class="st1" d="M75.3,12.1c0,2.7-0.9,4.9-2.6,6.6s-3.9,2.6-6.6,2.6c-1.2,0-2.3-0.2-3.3-0.5c0.2,0.3,0.5,0.6,0.7,0.9
		c3.7,3.4,9.4,3.4,13.1,0c3.6-3.5,3.7-9.3,0.2-12.9c-1-1-2.1-1.7-3.4-2.2C74.7,8.1,75.3,10,75.3,12.1z"/>
	<path class="st1" d="M95.7,36.5c1.1-2,2.4-3.6,4-5v-0.9h-4V36.5z"/>
	<path class="st1" d="M240.7,39.1L229,46.2c1.3,0.9,2.4,2,3.4,3.4l12.4-7.5c-2-3.3-4.8-6.1-8.1-8.1
		C238.2,35.5,239.6,37.2,240.7,39.1z"/>
	<path class="st1" d="M193.4,38.3v-7.7h-4V48c0.6-2.8,1.5-5.4,2.8-7.8C192.6,39.6,193,38.9,193.4,38.3z"/>
	<path class="st1" d="M213.2,67.5c-2-2.5-3.1-5.8-3.1-9.9s1-7.3,3.2-9.8c2-2.4,5-3.8,8.1-3.7c2-0.1,4,0.4,5.8,1.2
		c-2.5-2.8-5.8-4.2-9.8-4.2c-3.3,0-6,1.2-8.1,3.7s-3.1,5.8-3.1,9.8c0,4.1,1,7.5,3.1,10C210.4,65.9,211.7,66.9,213.2,67.5z"/>
	<path class="st1" d="M190,12.1c0,2.7-0.9,4.9-2.6,6.6c-1.7,1.7-3.9,2.6-6.6,2.6c-1.2,0-2.3-0.2-3.3-0.5c0.2,0.3,0.5,0.6,0.7,0.9
		c3.7,3.4,9.4,3.4,13.1,0c3.6-3.5,3.7-9.3,0.2-12.9c-1-1-2.1-1.7-3.4-2.2C189.4,8.1,190,10,190,12.1z"/>
	<path class="st1" d="M172.2,81.5V41c-0.9-2.1-2-3.9-3.5-5.5c-1.3-1.4-2.8-2.6-4.5-3.4c0.1,0.1,0.3,0.3,0.5,0.4
		c3.5,3.8,5.2,8.8,5.2,15.1v34h-13.2v3h17.2v-3L172.2,81.5L172.2,81.5z"/>
	<path class="st1" d="M192.3,69c-1.3-2.3-2.3-4.9-2.8-7.6v20.1h-13.2v3h17.2V70.8C193,70.3,192.6,69.6,192.3,69z"/>
	<polygon class="st1" points="57.5,37.8 41,81.5 26.2,81.5 27.3,84.5 45,84.5 45,84.5 57.5,51.4 	"/>
	<path class="st1" d="M240.7,70.1c-2.2,3.8-5.3,6.7-9.4,8.8c-4.2,2.2-9.2,3.2-14.9,3.2c-5.5,0-10.3-1.1-14.5-3.4
		c-0.3-0.2-0.7-0.4-1-0.6c1.5,1.4,3.2,2.6,5,3.6c4.5,2.4,9.4,3.5,14.5,3.4c5.1,0.1,10.2-1,14.9-3.2c4.1-2,7.4-5.3,9.6-9.3
		L240.7,70.1z"/>
	<polygon class="st1" points="78.5,81.5 78.5,30.6 74.7,30.6 74.7,81.5 61.5,81.5 61.5,84.5 78.7,84.5 78.7,81.5 	"/>
	<path class="st1" d="M113.2,44.8c-1.6-1.8-3.9-2.8-6.7-2.8c-3.3,0.1-5.9,1.3-7.8,3.7s-2.9,5.4-2.9,9.1v26.7H82.5v3h17.2V57.8
		c-0.1-3.3,0.9-6.5,2.9-9.1c1.9-2.4,4.8-3.8,7.8-3.7c1.1-0.1,2.3,0.1,3.3,0.5C113.6,45.3,113.4,45,113.2,44.8z"/>
	<path class="st1" d="M150.2,44.8c-1.7-1.8-3.9-2.8-6.8-2.8c-3.2,0.1-5.7,1.3-7.6,3.6c-1.9,2.4-2.9,5.4-2.9,9.2v26.7h-13.3v3h17.3
		V57.8c-0.1-3.3,0.9-6.5,2.9-9.2c1.8-2.3,4.7-3.7,7.6-3.6c1.2-0.1,2.4,0.1,3.5,0.5C150.7,45.3,150.5,45,150.2,44.8z"/>
</g>
<g class="st2">
	<path d="M150.5,46.3c0.1,0.1,0.2,0.3,0.3,0.4L164.4,33c-0.1-0.1-0.2-0.3-0.3-0.4L150.5,46.3z"/>
	<path d="M151.7,48.9c0.1,0.2,0.1,0.4,0.2,0.6l14.2-14.2c-0.1-0.1-0.2-0.3-0.3-0.4L151.7,48.9z"/>
	<polygon points="171.7,28.8 171.7,29.5 173.4,27.8 172.7,27.8 	"/>
	<polygon points="176.5,27.8 171.7,32.6 171.7,33.3 177.2,27.8 	"/>
	<path d="M148.8,44.2c0.1,0.1,0.2,0.2,0.4,0.3l13.4-13.4c-0.1-0.1-0.3-0.2-0.4-0.3L148.8,44.2z"/>
	<path d="M146.4,42.8c0.2,0.1,0.3,0.1,0.5,0.2l13.4-13.4c-0.1-0.1-0.3-0.2-0.4-0.3L146.4,42.8z"/>
	<path d="M132.4,53L115,70.4v0.7l17.3-17.3C132.3,53.6,132.4,53.3,132.4,53z"/>
	<polygon points="132.3,56.9 115,74.2 115,74.9 132.3,57.6 	"/>
	<path d="M138.5,43.2c0.4-0.2,0.8-0.4,1.2-0.5l15.2-15.2c-0.2,0-0.4-0.1-0.6-0.1L138.5,43.2z"/>
	<path d="M143.2,42.2c0.2,0,0.5,0,0.7,0l13.9-13.9c-0.2-0.1-0.4-0.1-0.5-0.2L143.2,42.2z"/>
	<polygon points="95.2,71.3 84.7,81.8 85.4,81.8 95.2,72 	"/>
	<polygon points="95.2,78.9 92.3,81.8 93,81.8 95.2,79.6 	"/>
	<polygon points="95.2,75.1 88.5,81.8 89.2,81.8 95.2,75.8 	"/>
	<polygon points="95.2,67.6 81,81.8 81.7,81.8 95.2,68.3 	"/>
	<polygon points="95.2,63.8 78,81 78,81.7 95.2,64.5 	"/>
	<path d="M152.1,52.2c0,0.1,0,0.2,0,0.3v0.4l15.3-15.3c-0.1-0.2-0.1-0.3-0.2-0.5L152.1,52.2z"/>
	<path d="M152.1,56v0.7l16.3-16.3c-0.1-0.2-0.1-0.4-0.2-0.5L152.1,56z"/>
	<path d="M169,43.6c0-0.2-0.1-0.4-0.1-0.6l-16.8,16.8v0.7L169,43.6z"/>
	<polygon points="132.3,60.7 115,78 115,78.7 132.3,61.4 	"/>
	<path d="M134.1,47.5L115,66.6v0.7l18.4-18.4C133.6,48.5,133.9,48,134.1,47.5z"/>
	<polygon points="95.2,60 78,77.2 78,77.9 95.2,60.7 	"/>
	<polygon points="169.3,69 156.6,81.7 157.3,81.7 169.3,69.7 	"/>
	<polygon points="169.3,72.8 160.4,81.7 161.1,81.7 169.3,73.5 	"/>
	<polygon points="171.7,62.8 171.7,63.5 188.9,46.3 188.9,45.6 	"/>
	<polygon points="169.3,76.6 164.2,81.7 164.9,81.7 169.3,77.3 	"/>
	<path d="M207,61.5l-12,12c0.1,0.1,0.2,0.2,0.3,0.4L207.2,62C207.1,61.9,207.1,61.7,207,61.5z"/>
	<polygon points="188.9,68.3 175.5,81.7 176.2,81.7 188.9,69 	"/>
	<polygon points="169.3,65.2 152.8,81.7 153.5,81.7 169.3,65.9 	"/>
	<polygon points="169.3,80.3 167.9,81.7 168.6,81.7 169.3,81.1 	"/>
	<polygon points="188.9,64.5 171.7,81.7 172.4,81.7 188.9,65.2 	"/>
	<polygon points="169.3,53.9 152.1,71.1 152.1,71.8 169.3,54.6 	"/>
	<polygon points="132.3,79.6 130.2,81.7 130.9,81.7 132.3,80.3 	"/>
	<polygon points="132.3,72 122.6,81.7 123.3,81.7 132.3,72.7 	"/>
	<polygon points="132.3,75.8 126.4,81.7 127.1,81.7 132.3,76.5 	"/>
	<polygon points="132.3,68.2 118.8,81.7 119.5,81.7 132.3,68.9 	"/>
	<path d="M169.3,46.4l-17.2,17.2v0.7l17.2-17.2C169.3,46.8,169.3,46.6,169.3,46.4z"/>
	<polygon points="169.3,61.5 152.1,78.7 152.1,79.4 169.3,62.2 	"/>
	<polygon points="132.3,64.5 115.1,81.7 115.8,81.7 132.3,65.2 	"/>
	<polygon points="169.3,57.7 152.1,74.9 152.1,75.6 169.3,58.4 	"/>
	<path d="M193.3,71.4c0.1,0.1,0.2,0.3,0.3,0.4l12.6-12.6c0-0.2-0.1-0.4-0.1-0.6L193.3,71.4z"/>
	<polygon points="169.3,50.1 152.1,67.3 152.1,68 169.3,50.8 	"/>
	<polygon points="29.4,57.8 18.1,69.1 18.3,69.7 29.6,58.3 	"/>
	<polygon points="27.7,52 16,63.6 16.2,64.2 27.8,52.5 	"/>
	<polygon points="74.2,81 73.5,81.7 74.2,81.7 	"/>
	<polygon points="26.8,49.1 15,60.9 15.2,61.4 26.9,49.6 	"/>
	<polygon points="25.9,46.2 13.9,58.2 14.1,58.7 26.1,46.7 	"/>
	<polygon points="30.3,60.7 19.1,71.9 19.3,72.4 30.5,61.2 	"/>
	<polygon points="54.8,43.7 21.2,77.4 21.4,77.9 54.4,44.9 	"/>
	<polygon points="52.5,49.8 22.2,80.1 22.4,80.6 52.1,50.9 	"/>
	<polygon points="31.2,63.6 20.1,74.6 20.3,75.1 31.4,64.1 	"/>
	<polygon points="41.6,34.2 41.3,35.3 48.8,27.8 48.1,27.8 	"/>
	<path d="M233.1,77.7l6.7-6.7c0.3-0.5,0.6-1,0.9-1.5l-0.1,0l-9.1,9.1C232,78.4,232.5,78.1,233.1,77.7z"/>
	<polygon points="34.6,57.1 63.9,27.8 63.2,27.8 34.9,56.1 	"/>
	<polygon points="25,43.3 12.9,55.4 13.1,55.9 25.2,43.8 	"/>
	<polygon points="7.2,27.8 6.5,27.8 3.6,30.7 3.8,31.2 	"/>
	<polygon points="38.3,45.2 38,46.2 56.3,27.8 55.6,27.8 	"/>
	<polygon points="50.2,55.9 24.4,81.7 25.1,81.7 49.8,57 	"/>
	<polygon points="39.9,39.7 39.6,40.7 52.6,27.8 51.8,27.8 	"/>
	<polygon points="36.6,50.6 36.3,51.6 60.1,27.8 59.4,27.8 	"/>
	<polygon points="43.3,28.8 43,29.8 45,27.8 44.3,27.8 	"/>
	<polygon points="28.5,54.9 17,66.4 17.2,66.9 28.7,55.4 	"/>
	<polygon points="74.2,69.7 62.2,81.7 62.9,81.7 74.2,70.4 	"/>
	<polygon points="74.2,62.1 57,79.3 57,80 74.2,62.8 	"/>
	<polygon points="74.2,65.9 58.4,81.7 59.1,81.7 74.2,66.6 	"/>
	<polygon points="74.2,58.3 57,75.5 57,76.2 74.2,59 	"/>
	<polygon points="74.2,73.4 65.9,81.7 66.6,81.7 74.2,74.2 	"/>
	<polygon points="74.2,77.2 69.7,81.7 70.4,81.7 74.2,77.9 	"/>
	<polygon points="74.2,54.6 57,71.8 57,72.5 74.2,55.3 	"/>
	<polygon points="95.2,56.9 95.2,56.2 78,73.4 78,74.1 	"/>
	<polygon points="57,60.4 57,61.1 74.2,43.9 74.2,43.2 	"/>
	<path d="M78,69.6v0.7l17.3-17.3c0-0.3,0.1-0.5,0.1-0.8L78,69.6z"/>
	<polygon points="57,52.9 57,53.6 74.2,36.4 74.2,35.7 	"/>
	<polygon points="57,56.6 57,57.4 74.2,40.2 74.2,39.4 	"/>
	<polygon points="74.2,47.7 74.2,47 57,64.2 57,64.9 	"/>
	<polygon points="57,49.1 57,49.8 74.2,32.6 74.2,31.9 	"/>
	<polygon points="74.2,50.8 57,68 57,68.7 74.2,51.5 	"/>
	<polygon points="48,61.9 28.2,81.7 28.9,81.7 47.5,63.1 	"/>
	<polygon points="43.4,74 35.7,81.7 36.4,81.7 43,75.2 	"/>
	<polygon points="41.1,80.1 39.5,81.7 40.2,81.7 40.7,81.2 	"/>
	<polygon points="45.7,68 31.9,81.7 32.6,81.7 45.2,69.1 	"/>
	<polygon points="10,47.7 22.5,35.2 22.4,34.6 9.8,47.2 	"/>
	<polygon points="78,32.6 82.7,27.9 82,27.9 78,31.9 	"/>
	<path d="M78,59l31.7-31.7c-0.3,0-0.6,0.1-0.8,0.1L78,58.3V59z"/>
	<path d="M78,55.2l26.6-26.6c-0.4,0.2-0.8,0.3-1.2,0.5L78,54.5V55.2z"/>
	<path d="M78,66.6l19-19c0.3-0.6,0.7-1.1,1.1-1.6c0.9-1.1,2-2,3.2-2.6l15.8-15.8c-0.2,0-0.4-0.1-0.6-0.1L78,65.9V66.6z"/>
	<path d="M78,62.8l35.7-35.7c-0.2,0-0.5,0-0.7,0c0,0,0,0,0,0l-35,35V62.8z"/>
	<polygon points="78,47.7 95.3,30.4 95.3,29.7 78,47 	"/>
	<polygon points="78,40.1 90.2,27.9 89.5,27.9 78,39.4 	"/>
	<polygon points="78,36.4 86.4,27.9 85.7,27.9 78,35.6 	"/>
	<path d="M105.9,42.2c0.1,0,0.2,0,0.2,0l14-14c-0.2-0.1-0.4-0.1-0.5-0.2l-14.2,14.2C105.6,42.2,105.7,42.2,105.9,42.2z"/>
	<polygon points="78,43.9 94,27.9 93.3,27.9 78,43.2 	"/>
	<polygon points="78,51.5 95.3,34.2 95.3,33.5 78,50.8 	"/>
	<path d="M115,59.8l32.7-32.7c-0.3,0-0.5,0-0.8,0.1L115,59.1V59.8z"/>
	<path d="M115,63.6l36.5-36.5c-0.2,0-0.5,0-0.7,0L115,62.9V63.6z"/>
	<path d="M109.3,42.8l13.4-13.4c-0.2-0.1-0.3-0.2-0.5-0.2l-13.5,13.5C109,42.7,109.2,42.7,109.3,42.8z"/>
	<path d="M131.1,39.3C131.1,39.3,131.1,39.3,131.1,39.3l-16.1,16V56l27.9-27.9c-0.4,0.1-0.7,0.3-1.1,0.4l-10.6,10.6
		C131.1,39.2,131.1,39.3,131.1,39.3z"/>
	<path d="M171.5,10.9l7.6-7.6c-0.3,0-0.6,0.1-0.8,0.1l-6.6,6.6C171.6,10.3,171.5,10.6,171.5,10.9z"/>
	<path d="M113.5,46.2L127,32.6c-0.1-0.1-0.2-0.2-0.3-0.4l-13.5,13.5C113.3,45.9,113.4,46.1,113.5,46.2z"/>
	<path d="M115,52.2l15.2-15.2c-0.1-0.2-0.2-0.3-0.2-0.5L115,51.5C115,51.8,115,52,115,52.2z"/>
	<path d="M111.7,44.2L125,30.9c-0.1-0.1-0.3-0.2-0.4-0.3l-13.3,13.3C111.5,44,111.6,44.1,111.7,44.2z"/>
	<path d="M114.6,48.9l14.1-14.1c-0.1-0.1-0.2-0.3-0.3-0.4l-14,14C114.5,48.5,114.6,48.7,114.6,48.9z"/>
	<path d="M58.4,18.2l13-13C71.3,5,71.2,4.9,71,4.8L58.1,17.7C58.2,17.9,58.3,18,58.4,18.2z"/>
	<polygon points="12.1,53.2 24.3,40.9 24.1,40.4 11.9,52.7 	"/>
	<path d="M56.6,12.5l9.3-9.3c-0.1,0-0.1,0-0.2,0c-0.2,0-0.3,0-0.5,0l-8.5,8.5C56.6,12,56.6,12.2,56.6,12.5z"/>
	<polygon points="9,45 21.7,32.3 21.5,31.7 8.8,44.4 	"/>
	<path d="M58,7.2l2.8-2.8c-0.6,0.4-1.2,0.8-1.7,1.4C58.7,6.3,58.3,6.7,58,7.2z"/>
	<polygon points="11,50.4 23.4,38 23.3,37.5 10.8,49.9 	"/>
	<polygon points="5.9,36.7 14.8,27.8 14.1,27.8 5.7,36.2 	"/>
	<polygon points="7.9,42.2 20.8,29.4 20.6,28.8 7.7,41.7 	"/>
	<polygon points="4.8,34 11,27.8 10.3,27.8 4.6,33.5 	"/>
	<polygon points="6.9,39.5 18.6,27.8 17.8,27.8 6.7,39 	"/>
	<path d="M57.1,15.7L69,3.8c-0.2-0.1-0.3-0.1-0.5-0.2L57,15.1C57,15.3,57.1,15.5,57.1,15.7z"/>
	<polygon points="57,42.2 71.4,27.8 70.7,27.8 57,41.5 	"/>
	<polygon points="32.9,62.5 56.7,38.8 57,37.9 57,38.5 67.7,27.8 67,27.8 33.2,61.5 	"/>
	<path d="M72.2,19c0.4-0.4,0.8-0.9,1.2-1.4l-2.2,2.2C71.5,19.6,71.9,19.3,72.2,19z"/>
	<polygon points="78,28.8 78.9,27.9 78.2,27.9 78,28.1 	"/>
	<polygon points="57,46 74.2,28.8 74.2,28.1 57,45.3 	"/>
	<path d="M191.8,69.2c0.1,0.1,0.2,0.3,0.3,0.4l13.6-13.6c0-0.2,0-0.5,0-0.7L191.8,69.2z"/>
	<path d="M66.4,21.5l8.5-8.5c0-0.2,0-0.5,0-0.7l-9.3,9.3C65.9,21.6,66.1,21.5,66.4,21.5z"/>
	<path d="M171.6,14.5l11.1-11.1c-0.2,0-0.4-0.1-0.6-0.1l-10.6,10.6C171.5,14.1,171.6,14.3,171.6,14.5z"/>
	<path d="M63,21.2L74.5,9.6c-0.1-0.2-0.1-0.4-0.2-0.5L62.4,21C62.6,21.1,62.8,21.1,63,21.2z"/>
	<path d="M60.4,20L73.2,7.1C73.1,7,73,6.8,72.9,6.7l-13,13C60.1,19.8,60.2,19.9,60.4,20z"/>
	<path d="M201.6,78.7c0.1,0,0.1,0.1,0.2,0.1L213,67.6c-0.2-0.1-0.3-0.1-0.5-0.2l-11.2,11.2C201.4,78.6,201.5,78.7,201.6,78.7z"/>
	<path d="M213.6,82l17.8-17.8L231,64l-18,18C213.2,82,213.4,82,213.6,82z"/>
	<path d="M204.4,80l11.7-11.7c-0.2,0-0.4,0-0.6-0.1l-11.6,11.6C204,79.8,204.2,79.9,204.4,80z"/>
	<path d="M210.2,81.7l18.8-18.8l-0.4-0.3l-19,19C209.8,81.6,210,81.6,210.2,81.7z"/>
	<path d="M207.2,81l13-13c-0.3,0.1-0.6,0.1-0.8,0.1l-12.7,12.7C206.8,80.9,207,80.9,207.2,81z"/>
	<path d="M225.4,43.9l10.3-10.3c-0.1-0.1-0.3-0.2-0.4-0.3L225,43.6C225.1,43.7,225.2,43.8,225.4,43.9z"/>
	<path d="M223.1,42.4l10.5-10.5c-0.1-0.1-0.3-0.2-0.4-0.3l-10.5,10.5C222.8,42.2,222.9,42.3,223.1,42.4z"/>
	<path d="M227.3,45.8l10.3-10.3c-0.1-0.1-0.2-0.3-0.3-0.4l-10.3,10.3C227.1,45.5,227.2,45.6,227.3,45.8z"/>
	<path d="M233.7,43.1l5.6-5.6c-0.1-0.1-0.2-0.3-0.3-0.4l-7.1,7.1L233.7,43.1z"/>
	<path d="M221.5,81.8L236.2,67l-0.4-0.3l-15.1,15.1C220.9,81.8,221.2,81.8,221.5,81.8z"/>
	<polygon points="188.9,75.9 183,81.7 183.8,81.7 188.9,76.6 	"/>
	<polygon points="188.9,72.1 179.3,81.7 180,81.7 188.9,72.8 	"/>
	<polygon points="188.9,79.6 186.8,81.7 187.5,81.7 188.9,80.3 	"/>
	<path d="M190.6,66.6c0.1,0.2,0.1,0.3,0.2,0.5l15-15c0-0.3,0.1-0.6,0.1-0.8L190.6,66.6z"/>
	<path d="M226.3,80.7l12.2-12.2l-0.4-0.3L225.3,81C225.7,80.9,226,80.8,226.3,80.7z"/>
	<path d="M172.7,17.3l12.7-12.7c-0.1-0.1-0.3-0.2-0.4-0.3l-12.5,12.5C172.5,17,172.6,17.1,172.7,17.3z"/>
	<path d="M217.4,82.1l16.5-16.5l-0.4-0.3l-16.7,16.7C216.9,82.1,217.1,82.1,217.4,82.1z"/>
	<path d="M210.2,65.9L199,77.1c0.1,0.1,0.3,0.2,0.4,0.3l11.1-11.1C210.4,66.1,210.3,66,210.2,65.9z"/>
	<path d="M208.4,63.9l-11.5,11.5c0.1,0.1,0.2,0.2,0.4,0.3l11.4-11.4C208.6,64.2,208.5,64.1,208.4,63.9z"/>
	<path d="M220.3,41.3l10.9-10.9c-0.2-0.1-0.3-0.2-0.5-0.2l-11,11C220,41.3,220.2,41.3,220.3,41.3z"/>
	<polygon points="171.7,40.9 184.8,27.8 184.1,27.8 171.7,40.2 	"/>
	<polygon points="171.7,52.2 188.9,35 188.9,34.3 171.7,51.5 	"/>
	<polygon points="171.7,48.4 188.9,31.2 188.9,30.5 171.7,47.7 	"/>
	<polygon points="171.7,37.1 181,27.8 180.3,27.8 171.7,36.4 	"/>
	<polygon points="171.7,44.7 188.5,27.8 187.8,27.8 171.7,43.9 	"/>
	<path d="M176.7,20.8l12.2-12.2c-0.1-0.2-0.2-0.3-0.2-0.5l-12.5,12.5C176.3,20.6,176.5,20.7,176.7,20.8z"/>
	<path d="M184.2,20.8l4.8-4.8c0.1-0.3,0.3-0.7,0.4-1.1l-6.3,6.3C183.5,21.1,183.9,20.9,184.2,20.8z"/>
	<path d="M174.3,19.4l13.1-13.1c-0.1-0.1-0.1-0.1-0.2-0.2C187.1,6,187.1,6,187,5.9L173.9,19C174.1,19.2,174.2,19.3,174.3,19.4z"/>
	<path d="M179.7,21.5l10-10c0-0.2,0-0.4-0.1-0.6l-10.5,10.5C179.3,21.5,179.5,21.5,179.7,21.5z"/>
	<path d="M216.9,41l11.7-11.7c-0.2-0.1-0.4-0.1-0.5-0.2L216.2,41C216.4,41,216.7,41,216.9,41z"/>
	<path d="M171.7,74.9l47.6-47.6c-0.2,0-0.4,0-0.7,0l-46.9,46.9V74.9z"/>
	<path d="M171.7,78.7l17.2-17.2v-0.2c0,0.1,0,0.1,0,0.2l33.7-33.7c-0.2,0-0.4-0.1-0.6-0.1l-50.3,50.3V78.7z"/>
	<path d="M171.7,71.1l43.9-43.9c-0.2,0-0.5,0-0.7,0l-43.2,43.2V71.1z"/>
	<path d="M189.8,64.4l17.8-17.8c0.4-0.7,0.8-1.3,1.3-1.9c0.8-1,1.8-1.8,2.9-2.4l13.8-13.8c-0.2-0.1-0.4-0.1-0.6-0.2l-35.6,35.6
		C189.6,64,189.7,64.2,189.8,64.4z"/>
	<path d="M171.7,67.3l39.8-39.8c-0.3,0-0.5,0.1-0.8,0.1l-39,39V67.3z"/>
	<path d="M192.8,38.6l6.7-6.7C196.9,33.7,194.6,36,192.8,38.6z"/>
	<polygon points="171.7,56 188.9,38.8 188.9,38.1 171.7,55.3 	"/>
	<polygon points="171.7,59.8 188.9,42.6 188.9,41.9 171.7,59.1 	"/>
	<path d="M189.6,45.7l17.1-17.1c-0.4,0.1-0.7,0.2-1.1,0.4l-15.7,15.7C189.8,45,189.7,45.3,189.6,45.7z"/>
</g>
<path id="vimic-3" d="M38,78.5l20.3-53.9H41.1L29.4,62.7L17.8,24.6H0l20.3,53.9H38L38,78.5z M71.7,78.5V24.6H54.5v53.9H71.7
	L71.7,78.5z M63.1,0c-2.4-0.1-4.8,0.8-6.5,2.6c-3.4,3.7-3.4,9.4,0,13.2c3.7,3.4,9.4,3.4,13.1,0c3.6-3.5,3.7-9.3,0.2-12.9
	C68.2,0.9,65.7-0.1,63.1,0L63.1,0L63.1,0z M147.5,23.8c-4.1,0-8.1,1-11.5,3.2s-6,5.3-7.4,9.1c-1.2-3.6-3.6-6.8-6.8-9
	c-3.3-2.2-7.3-3.3-11.3-3.2c-3.7,0-7.3,0.8-10.5,2.5c-3.1,1.6-5.6,4.1-7.2,7.2v-8.9H75.5v53.9h17.2V51.8c-0.1-3.3,0.9-6.5,2.9-9.1
	c1.9-2.4,4.8-3.8,7.8-3.7c2.5-0.1,5,0.9,6.7,2.8c1.7,2.1,2.6,4.8,2.4,7.5v29.2h17.3V51.8c-0.1-3.3,0.9-6.5,2.9-9.2
	c1.8-2.3,4.7-3.7,7.6-3.6c2.6-0.1,5.1,0.9,6.8,2.8c1.8,2.1,2.6,4.8,2.5,7.5v29.2h17.2v-34c0-6.3-1.7-11.3-5.2-15.1
	C158.2,25.7,153.5,23.8,147.5,23.8L147.5,23.8L147.5,23.8z M186.4,78.5V24.6h-17.2v53.9H186.4L186.4,78.5z M177.9,0
	c-2.4-0.1-4.8,0.8-6.5,2.6c-3.4,3.7-3.4,9.4,0,13.2c3.7,3.4,9.4,3.4,13.1,0c3.6-3.5,3.7-9.3,0.2-12.9C182.9,0.9,180.4-0.1,177.9,0
	L177.9,0L177.9,0z M213.8,24c-5.1-0.1-10.1,1.1-14.6,3.4c-4.2,2.2-7.6,5.6-9.9,9.7c-2.4,4.4-3.6,9.4-3.5,14.5
	c-0.1,5,1.1,9.9,3.5,14.3c2.3,4.1,5.7,7.4,9.8,9.6c4.5,2.4,9.4,3.5,14.5,3.4c5.1,0.1,10.2-1,14.9-3.2c4.1-2,7.4-5.3,9.6-9.3
	L225.5,59c-2.2,4.1-5.9,6.1-11,6.1c-3.2,0.1-6.2-1.3-8.2-3.8c-2.1-2.5-3.1-5.8-3.1-10c0-4.1,1-7.3,3.2-9.8c2-2.4,5-3.8,8.1-3.7
	c4.3-0.2,8.5,2,10.9,5.6l12.4-7.5c-2.3-3.9-5.7-7-9.8-9C223.5,25,218.7,23.9,213.8,24L213.8,24L213.8,24z"/>
</svg>
