<?xml version="1.0" standalone="no"?>
<!DOCTYPE svg PUBLIC "-//W3C//DTD SVG 20010904//EN"
 "http://www.w3.org/TR/2001/REC-SVG-20010904/DTD/svg10.dtd">
<svg version="1.0" xmlns="http://www.w3.org/2000/svg"
 width="1760.000000pt" height="1760.000000pt" viewBox="0 0 1760.000000 1760.000000"
 preserveAspectRatio="xMidYMid meet">
<metadata>
Created by potrace 1.11, written by Peter Selinger 2001-2013
</metadata>
<g transform="translate(0.000000,1760.000000) scale(0.100000,-0.100000)"
fill="#000000" stroke="none">
<path d="M9418 17595 c-2 -2 -69 -6 -150 -9 -82 -4 -167 -9 -190 -11 -24 -3
-74 -7 -113 -9 -38 -3 -86 -7 -105 -10 -38 -6 -119 -15 -190 -21 -25 -2 -61
-6 -80 -10 -19 -3 -51 -8 -70 -10 -19 -2 -48 -6 -65 -9 -16 -2 -50 -7 -75 -11
-39 -6 -120 -20 -225 -41 -16 -3 -41 -6 -55 -7 -14 -1 -29 -5 -35 -8 -5 -4
-32 -10 -60 -14 -27 -5 -52 -9 -55 -10 -3 0 -23 -5 -45 -10 -41 -9 -50 -11
-62 -15 -5 -1 -11 -2 -14 -2 -4 1 -22 -3 -40 -9 -19 -5 -45 -11 -59 -14 -14
-3 -55 -13 -92 -24 -38 -11 -68 -17 -68 -14 0 3 -7 0 -15 -7 -8 -6 -19 -9 -25
-5 -5 3 -10 2 -10 -2 0 -5 -10 -9 -22 -10 -12 -1 -33 -6 -47 -12 -14 -5 -66
-22 -116 -36 -49 -15 -96 -32 -102 -37 -7 -6 -13 -8 -13 -4 0 4 -12 0 -27 -7
-16 -8 -36 -13 -45 -12 -10 2 -18 -1 -18 -6 0 -5 -8 -9 -18 -9 -10 0 -22 -3
-26 -7 -3 -4 -12 -8 -19 -9 -35 -7 -464 -190 -477 -204 -3 -3 -12 -6 -20 -8
-8 -2 -16 -8 -18 -13 -2 -5 -9 -9 -15 -9 -13 0 -24 -6 -142 -70 -44 -24 -91
-50 -105 -57 -14 -8 -54 -32 -89 -53 -34 -22 -67 -40 -72 -40 -5 0 -9 -4 -9
-10 0 -5 -5 -10 -10 -10 -6 0 -35 -18 -65 -40 -30 -22 -58 -40 -63 -40 -4 0
-17 -8 -28 -18 -10 -10 -41 -33 -69 -52 -57 -40 -63 -44 -91 -68 -12 -9 -36
-28 -54 -42 -18 -14 -39 -31 -46 -37 -7 -7 -17 -13 -23 -13 -6 0 -11 -4 -11
-8 0 -5 -29 -32 -65 -62 -79 -64 -344 -325 -400 -395 -22 -27 -47 -56 -55 -65
-61 -65 -270 -344 -270 -359 0 -6 -4 -11 -9 -11 -5 0 -11 -8 -15 -17 -5 -18
-26 -53 -36 -63 -15 -15 -50 -71 -50 -80 0 -5 -5 -10 -11 -10 -5 0 -8 -4 -4
-9 3 -5 1 -12 -4 -15 -8 -5 -22 -28 -91 -151 -22 -39 -134 -258 -136 -265 0
-3 -5 -16 -11 -30 -31 -71 -56 -128 -69 -155 -20 -44 -109 -294 -119 -335 0
-3 -9 -32 -19 -65 -10 -33 -19 -64 -21 -70 -1 -5 -5 -17 -8 -25 -9 -22 -75
-319 -82 -366 -3 -22 -9 -54 -14 -70 -4 -16 -7 -41 -7 -56 1 -16 -1 -28 -5
-28 -3 0 -6 -6 -6 -12 0 -7 -3 -31 -7 -53 -3 -22 -8 -62 -12 -90 -3 -27 -8
-68 -10 -90 -12 -99 -14 -122 -31 -335 -10 -133 -11 -11232 0 -11360 4 -52 10
-111 13 -130 3 -19 7 -51 9 -70 4 -33 9 -61 20 -120 3 -14 8 -38 11 -55 9 -55
50 -201 71 -255 4 -8 7 -17 8 -20 10 -28 19 -49 31 -72 8 -16 12 -28 8 -28 -3
0 0 -7 7 -16 7 -9 14 -21 15 -28 3 -16 87 -160 96 -164 4 -2 8 -8 8 -13 0 -34
204 -266 289 -329 18 -14 42 -33 52 -43 11 -9 21 -17 23 -17 3 0 31 -17 63
-38 83 -55 271 -143 331 -156 17 -4 32 -12 32 -18 0 -6 3 -9 6 -6 3 3 43 -5
90 -18 47 -12 100 -26 117 -29 76 -14 104 -18 130 -19 15 -1 27 -3 27 -7 0 -3
17 -6 39 -7 21 -2 49 -5 62 -7 35 -7 106 -15 174 -21 33 -2 76 -6 95 -9 163
-18 734 -25 985 -11 190 10 286 16 325 21 19 2 64 7 100 10 36 3 81 8 100 11
19 2 53 6 75 9 111 13 203 26 230 31 20 4 61 10 125 19 20 3 60 10 90 16 30 6
71 13 90 15 39 5 75 12 75 14 0 1 11 3 25 5 21 2 147 29 185 39 101 27 105 29
105 50 1 11 2 1837 3 4056 l2 4035 161 1 c88 0 166 4 172 8 7 4 12 4 12 -1 0
-4 42 -7 92 -5 51 1 107 2 123 1 88 -4 233 -1 243 5 6 3 13 3 15 -1 7 -10 181
-8 197 2 7 5 11 4 7 -1 -6 -11 214 -11 231 0 7 4 12 4 12 -1 0 -10 143 -9 159
1 6 4 11 3 11 -2 0 -5 12 -7 28 -5 15 2 41 4 57 3 78 -5 233 -2 243 4 6 3 13
3 15 -1 7 -10 181 -8 197 2 7 5 11 4 7 -1 -6 -11 214 -11 231 0 7 4 12 4 12
-1 0 -10 143 -9 159 1 6 4 11 3 11 -2 0 -5 12 -7 28 -5 15 2 41 4 57 3 78 -5
233 -2 243 4 6 3 13 3 16 -2 5 -8 110 -6 134 3 7 2 11 1 8 -4 -3 -5 18 -7 47
-5 28 3 88 6 132 8 79 4 243 24 256 32 4 2 24 6 45 10 22 3 46 10 54 14 8 4
17 8 20 7 23 -2 220 76 272 109 21 13 38 21 38 17 0 -5 4 -3 8 2 4 6 36 30 72
54 79 55 108 79 185 157 72 73 79 82 128 156 36 55 125 233 132 266 2 9 13 40
23 67 11 28 20 53 21 58 5 46 15 87 20 87 4 0 7 8 8 18 0 18 10 83 17 117 12
60 24 157 32 260 8 96 8 426 0 510 -12 130 -18 191 -22 210 -3 11 -7 36 -10
55 -12 77 -30 168 -49 243 -14 54 -85 276 -102 317 -4 8 -7 18 -8 23 -2 4 -4
9 -5 12 -1 3 -3 8 -5 13 -1 4 -7 20 -13 35 -7 16 -12 31 -12 33 0 3 -11 30
-25 60 -14 30 -25 57 -25 61 0 8 -103 237 -110 243 -3 3 -14 21 -24 41 l-19
35 -2081 -1 c-1144 0 -2089 1 -2098 3 -15 4 -16 44 -13 520 3 507 5 551 25
661 5 30 8 57 5 59 -3 3 -1 10 4 16 5 6 12 25 14 41 3 17 11 48 18 70 7 22 13
45 13 50 3 42 112 275 159 339 137 191 278 311 482 411 33 17 62 32 65 35 10
10 235 97 275 106 6 1 30 10 55 19 25 9 56 19 70 21 14 3 48 11 75 19 28 8 61
17 75 19 14 3 37 8 51 10 14 3 39 7 55 9 17 2 36 7 43 11 7 4 15 6 17 3 3 -3
20 -1 37 4 17 5 56 11 87 14 30 3 69 7 85 9 17 3 59 7 95 10 36 4 88 9 115 12
64 7 837 12 850 5 5 -2 39 -6 75 -8 83 -4 204 -12 255 -18 22 -3 67 -7 100 -9
33 -2 76 -7 95 -11 19 -3 49 -8 65 -10 29 -3 85 -11 150 -20 17 -2 39 -6 50
-8 11 -3 40 -8 65 -12 25 -4 54 -9 65 -11 11 -2 34 -7 50 -10 17 -3 62 -11
100 -19 39 -8 81 -16 95 -19 14 -2 45 -9 70 -15 25 -5 46 -10 48 -10 63 -10
82 -15 82 -23 0 -5 4 -6 10 -3 5 3 38 -1 72 -10 35 -8 72 -17 83 -20 11 -2 56
-13 100 -25 44 -11 93 -22 109 -25 16 -3 32 -8 36 -10 12 -7 132 103 190 175
19 24 40 48 45 54 26 28 95 126 95 135 0 5 4 11 8 13 15 6 111 170 170 293 52
106 75 162 75 180 0 8 4 15 8 15 3 0 9 10 12 23 3 12 14 56 25 97 30 112 52
227 56 296 2 16 5 34 8 40 6 11 2 408 -5 484 -3 30 -8 73 -11 95 -3 22 -8 54
-10 72 -6 42 -36 184 -43 203 -4 8 -5 19 -4 24 1 4 -4 14 -10 22 -6 8 -8 14
-4 14 4 0 2 7 -5 15 -7 8 -10 15 -6 15 3 0 0 16 -8 35 -9 20 -15 38 -15 40 -1
3 -8 21 -16 41 -8 20 -15 38 -15 40 0 9 -83 173 -105 209 -14 22 -28 47 -32
55 -4 8 -11 20 -15 25 -4 6 -36 46 -70 90 -79 103 -244 265 -268 265 -5 0 -10
4 -10 10 0 9 -116 90 -187 131 -139 80 -179 99 -218 109 -5 1 -22 11 -37 21
-14 10 -30 19 -35 19 -4 0 -42 14 -83 31 -41 17 -82 32 -90 35 -8 2 -55 17
-104 34 -49 16 -96 30 -105 30 -9 0 -21 4 -27 9 -5 5 -40 16 -79 25 -38 9 -77
18 -85 20 -85 22 -107 27 -120 28 -8 0 -21 5 -27 11 -7 5 -13 7 -13 5 0 -6
-43 1 -201 31 -59 11 -131 23 -160 26 -30 3 -61 8 -69 10 -8 2 -40 7 -70 10
-30 4 -71 9 -90 11 -68 9 -136 16 -195 19 -33 2 -60 4 -60 5 0 3 -49 6 -195
15 -69 3 -154 9 -190 11 -75 6 -927 14 -932 9z"/>
</g>
</svg>
