<?xml version="1.0" standalone="no"?>
<!DOCTYPE svg PUBLIC "-//W3C//DTD SVG 20010904//EN"
 "http://www.w3.org/TR/2001/REC-SVG-20010904/DTD/svg10.dtd">
<svg version="1.0" xmlns="http://www.w3.org/2000/svg"
 width="700.000000pt" height="700.000000pt" viewBox="0 0 700.000000 700.000000"
 preserveAspectRatio="xMidYMid meet">
<metadata>
Created by potrace 1.11, written by Peter Selinger 2001-2013
</metadata>
<g transform="translate(0.000000,700.000000) scale(0.100000,-0.100000)"
fill="#000000" stroke="none">
<path d="M2589 6996 c-2 -2 -35 -6 -74 -9 -38 -4 -86 -9 -105 -11 -19 -3 -57
-8 -85 -12 -27 -3 -52 -7 -55 -9 -3 -2 -25 -6 -48 -10 -155 -23 -536 -154
-687 -236 -27 -15 -75 -40 -105 -56 -314 -167 -658 -467 -879 -768 -124 -168
-268 -418 -331 -575 -12 -30 -28 -68 -35 -85 -40 -94 -106 -323 -131 -450 -4
-22 -9 -47 -10 -55 -2 -8 -6 -37 -10 -65 -3 -27 -7 -56 -10 -64 -25 -77 -25
-555 1 -736 18 -131 67 -354 95 -435 53 -154 86 -243 102 -280 38 -85 115
-237 158 -311 41 -69 166 -258 179 -269 3 -3 19 -23 36 -45 44 -59 172 -200
256 -282 258 -250 574 -452 924 -589 163 -63 412 -130 560 -150 28 -3 52 -8
55 -9 30 -18 526 -27 650 -12 36 5 72 8 80 9 14 0 196 32 245 42 261 54 575
179 821 327 45 27 83 49 86 49 2 0 408 -404 903 -899 870 -869 902 -900 975
-935 264 -128 563 -59 732 169 132 179 153 403 56 605 l-41 85 -898 900 c-495
495 -899 902 -899 904 0 2 22 40 49 85 56 94 137 252 176 346 55 130 128 360
150 467 18 89 36 195 41 238 3 28 9 76 13 108 10 77 11 423 1 517 -16 143 -21
185 -26 199 -3 8 -7 30 -10 50 -17 111 -111 446 -134 476 -4 6 -13 28 -20 50
-36 114 -200 415 -303 559 -357 497 -838 851 -1414 1042 -83 27 -287 79 -353
89 -25 4 -53 9 -64 11 -10 2 -44 6 -75 10 -31 3 -65 8 -76 11 -24 5 -461 14
-466 9z m350 -881 c46 -3 86 -7 90 -9 3 -2 29 -7 56 -10 195 -25 477 -130 670
-250 316 -195 556 -459 716 -786 135 -276 198 -553 193 -851 -1 -106 -12 -247
-19 -259 -1 -3 -6 -25 -9 -50 -10 -72 -51 -228 -84 -316 -32 -86 -120 -270
-152 -319 -11 -16 -27 -43 -36 -60 -37 -66 -167 -225 -255 -313 -154 -153
-339 -284 -539 -379 -132 -63 -358 -135 -463 -148 -26 -3 -69 -10 -95 -14
-105 -19 -410 -17 -512 4 -13 2 -42 7 -65 10 -130 18 -341 88 -500 167 -375
184 -668 477 -859 856 -64 128 -125 294 -142 388 -3 15 -7 31 -10 36 -3 4 -12
49 -20 100 -85 527 40 1038 361 1463 88 118 258 287 359 360 16 11 40 29 55
41 88 69 288 174 433 229 94 34 259 79 333 90 23 3 52 8 65 11 14 3 70 7 125
10 55 3 101 7 103 9 3 2 71 -1 201 -10z"/>
</g>
</svg>
