<?xml version="1.0" encoding="UTF-8"?>
<svg width="128px" height="128px" viewBox="0 0 128 128" version="1.1" xmlns="http://www.w3.org/2000/svg" xmlns:xlink="http://www.w3.org/1999/xlink">
    <!-- Generator: Sketch 41.2 (35397) - http://www.bohemiancoding.com/sketch -->
    <title>Shape</title>
    <desc>Created with Sketch.</desc>
    <defs></defs>
    <g id="Page-1" stroke="none" stroke-width="1" fill="none" fill-rule="evenodd">
        <path d="M124.877875,109.789562 L94.2603604,79.1549801 C93.9104947,78.8051144 93.5165402,78.5391596 93.136808,78.2433382 C98.3008825,70.3045158 101.338741,60.8496088 101.338741,50.6622593 C101.337319,22.6829592 78.6614704,0 50.6665259,0 C22.6900703,0 0,22.6829592 0,50.6622593 C0,78.6529371 22.6900703,101.328785 50.6665259,101.328785 C60.8424977,101.328785 70.3201602,98.2980381 78.2660937,93.1197413 C78.554804,93.5065847 78.8278699,93.886317 79.1620912,94.2432938 L109.796673,124.870764 C111.877378,126.967114 114.610882,127.999644 117.330163,127.999644 C120.063666,127.999644 122.79717,126.967114 124.877875,124.886409 C129.040708,120.709354 129.040708,113.958083 124.877875,109.789562 Z M50.6665259,85.3288296 C31.5604457,85.3288296 16.0070666,69.7768728 16.0070666,50.6622593 C16.0070666,31.556179 31.5590234,15.9999556 50.6665259,15.9999556 C69.7726062,15.9999556 85.344474,31.556179 85.344474,50.6622593 C85.344474,69.7768728 69.7726062,85.3288296 50.6665259,85.3288296 Z" id="Shape" fill="#3C5AFC"></path>
    </g>
</svg>